<?xml version="1.0" encoding="UTF-8" standalone="no"?>
<!-- Created with Inkscape (http://www.inkscape.org/) -->

<svg
   xmlns:dc="http://purl.org/dc/elements/1.1/"
   xmlns:cc="http://creativecommons.org/ns#"
   xmlns:rdf="http://www.w3.org/1999/02/22-rdf-syntax-ns#"
   xmlns:svg="http://www.w3.org/2000/svg"
   xmlns="http://www.w3.org/2000/svg"
   xmlns:sodipodi="http://sodipodi.sourceforge.net/DTD/sodipodi-0.dtd"
   xmlns:inkscape="http://www.inkscape.org/namespaces/inkscape"
   width="332.90042"
   height="219.71428"
   id="svg2"
   version="1.1"
   inkscape:version="0.48.3.1 r9886"
   sodipodi:docname="prm.svg"
   inkscape:export-filename="/home/cuong/git/osrobotics/content/figures/motion_planning/prm.png"
   inkscape:export-xdpi="300.20547"
   inkscape:export-ydpi="300.20547">
  <sodipodi:namedview
     id="base"
     pagecolor="#ffffff"
     bordercolor="#666666"
     borderopacity="1.0"
     inkscape:pageopacity="0.0"
     inkscape:pageshadow="2"
     inkscape:zoom="1.3417434"
     inkscape:cx="161.89013"
     inkscape:cy="114.36705"
     inkscape:document-units="px"
     inkscape:current-layer="layer1"
     showgrid="false"
     inkscape:window-width="900"
     inkscape:window-height="1416"
     inkscape:window-x="1920"
     inkscape:window-y="24"
     inkscape:window-maximized="1"
     fit-margin-top="0"
     fit-margin-left="0"
     fit-margin-right="0"
     fit-margin-bottom="0"
     showguides="false"
     inkscape:snap-global="true">
    <inkscape:grid
       type="xygrid"
       id="grid4558" />
  </sodipodi:namedview>
  <defs
     id="defs4">
    <marker
       style="overflow:visible"
       id="Arrow1Send"
       refX="0"
       refY="0"
       orient="auto"
       inkscape:stockid="Arrow1Send">
      <path
         transform="matrix(-0.2,0,0,-0.2,-1.2,0)"
         style="fill-rule:evenodd;stroke:#000000;stroke-width:1pt"
         d="M 0,0 5,-5 -12.5,0 5,5 0,0 z"
         id="path3849"
         inkscape:connector-curvature="0" />
    </marker>
    <marker
       style="overflow:visible"
       id="Arrow1SendP"
       refX="0"
       refY="0"
       orient="auto"
       inkscape:stockid="Arrow1SendP">
      <path
         transform="matrix(-0.2,0,0,-0.2,-1.2,0)"
         style="fill:#960000;fill-rule:evenodd;stroke:#960000;stroke-width:1pt"
         d="M 0,0 5,-5 -12.5,0 5,5 0,0 z"
         id="path4279"
         inkscape:connector-curvature="0" />
    </marker>
    <marker
       style="overflow:visible"
       id="Arrow1SendPF"
       refX="0"
       refY="0"
       orient="auto"
       inkscape:stockid="Arrow1SendPF">
      <path
         transform="matrix(-0.2,0,0,-0.2,-1.2,0)"
         style="fill:#009600;fill-rule:evenodd;stroke:#009600;stroke-width:1pt"
         d="M 0,0 5,-5 -12.5,0 5,5 0,0 z"
         id="path4313"
         inkscape:connector-curvature="0" />
    </marker>
    <marker
       style="overflow:visible"
       id="Arrow1SendPL"
       refX="0"
       refY="0"
       orient="auto"
       inkscape:stockid="Arrow1SendPL">
      <path
         transform="matrix(-0.2,0,0,-0.2,-1.2,0)"
         style="fill:#c80000;fill-rule:evenodd;stroke:#c80000;stroke-width:1pt"
         d="M 0,0 5,-5 -12.5,0 5,5 0,0 z"
         id="path4670"
         inkscape:connector-curvature="0" />
    </marker>
  </defs>
  <metadata
     id="metadata7">
    <rdf:RDF>
      <cc:Work
         rdf:about="">
        <dc:format>image/svg+xml</dc:format>
        <dc:type
           rdf:resource="http://purl.org/dc/dcmitype/StillImage" />
        <dc:title></dc:title>
      </cc:Work>
    </rdf:RDF>
  </metadata>
  <g
     id="layer1"
     inkscape:groupmode="layer"
     inkscape:label="Layer 1"
     transform="translate(-200.67101,-146.79076)">
    <path
       sodipodi:nodetypes="cc"
       inkscape:connector-curvature="0"
       id="path4675"
       d="M 513.1855,178.28114 490.45387,162.97345"
       style="fill:none;stroke:#009600;stroke-width:1.80407894;stroke-linecap:butt;stroke-linejoin:miter;stroke-miterlimit:4;stroke-opacity:1;stroke-dasharray:none" />
    <path
       style="fill:none;stroke:#009600;stroke-width:1.80407894;stroke-linecap:butt;stroke-linejoin:miter;stroke-miterlimit:4;stroke-opacity:1;stroke-dasharray:none"
       d="m 323.87955,236.41445 42.10939,7.42393"
       id="path4668"
       inkscape:connector-curvature="0"
       sodipodi:nodetypes="cc" />
    <path
       style="fill:none;stroke:#009600;stroke-width:1.80407894;stroke-linecap:butt;stroke-linejoin:miter;stroke-miterlimit:4;stroke-opacity:1;stroke-dasharray:none"
       d="m 487.47267,323.2418 11.92478,-41.76581"
       id="path4662"
       inkscape:connector-curvature="0"
       sodipodi:nodetypes="cc" />
    <path
       sodipodi:nodetypes="cc"
       inkscape:connector-curvature="0"
       id="path4664"
       d="m 500.5154,243.86746 -1.11795,37.60853"
       style="fill:none;stroke:#009600;stroke-width:1.80407894;stroke-linecap:butt;stroke-linejoin:miter;stroke-miterlimit:4;stroke-opacity:1;stroke-dasharray:none" />
    <path
       sodipodi:nodetypes="cc"
       inkscape:connector-curvature="0"
       id="path4660"
       d="m 276.18042,247.59395 -31.67521,55.86836"
       style="fill:none;stroke:#009600;stroke-width:1.80407894;stroke-linecap:butt;stroke-linejoin:miter;stroke-miterlimit:4;stroke-opacity:1;stroke-dasharray:none" />
    <path
       sodipodi:nodetypes="cc"
       inkscape:connector-curvature="0"
       id="path4654"
       d="m 414.80602,278.1512 -39.1282,40.21709"
       style="fill:none;stroke:#009600;stroke-width:1.80407894;stroke-linecap:butt;stroke-linejoin:miter;stroke-miterlimit:4;stroke-opacity:1;stroke-dasharray:none" />
    <path
       style="fill:none;stroke:#009600;stroke-width:1.80407894;stroke-linecap:butt;stroke-linejoin:miter;stroke-miterlimit:4;stroke-opacity:1;stroke-dasharray:none"
       d="M 438.28294,318.0247 414.80602,278.86745"
       id="path4656"
       inkscape:connector-curvature="0"
       sodipodi:nodetypes="cc" />
    <path
       sodipodi:nodetypes="cc"
       inkscape:connector-curvature="0"
       id="path4658"
       d="m 487.47267,323.2418 -49.93504,-4.87351"
       style="fill:none;stroke:#009600;stroke-width:1.80407894;stroke-linecap:butt;stroke-linejoin:miter;stroke-miterlimit:4;stroke-opacity:1;stroke-dasharray:none" />
    <path
       style="fill:none;stroke:#009600;stroke-width:1.80407894;stroke-linecap:butt;stroke-linejoin:miter;stroke-miterlimit:4;stroke-opacity:1;stroke-dasharray:none"
       d="M 414.80602,278.8965 367.85218,243.83839"
       id="path4648"
       inkscape:connector-curvature="0"
       sodipodi:nodetypes="cc" />
    <path
       sodipodi:nodetypes="cc"
       inkscape:connector-curvature="0"
       id="path4650"
       d="m 392.0744,195.05036 -25.34017,48.78803"
       style="fill:none;stroke:#009600;stroke-width:1.80407894;stroke-linecap:butt;stroke-linejoin:miter;stroke-miterlimit:4;stroke-opacity:1;stroke-dasharray:none" />
    <path
       style="fill:none;stroke:#009600;stroke-width:1.80407894;stroke-linecap:butt;stroke-linejoin:miter;stroke-miterlimit:4;stroke-opacity:1;stroke-dasharray:none"
       d="M 392.8197,195.05036 376.79577,170.79909"
       id="path4652"
       inkscape:connector-curvature="0"
       sodipodi:nodetypes="cc" />
    <path
       style="fill:none;stroke:#009600;stroke-width:1.80407894;stroke-linecap:butt;stroke-linejoin:miter;stroke-miterlimit:4;stroke-opacity:1;stroke-dasharray:none"
       d="m 276.18042,247.59395 21.61367,43.57093"
       id="path4646"
       inkscape:connector-curvature="0"
       sodipodi:nodetypes="cc" />
    <path
       sodipodi:nodetypes="cc"
       inkscape:connector-curvature="0"
       id="path4640"
       d="m 323.87955,236.41445 -47.69914,10.40513"
       style="fill:none;stroke:#009600;stroke-width:1.80407894;stroke-linecap:butt;stroke-linejoin:miter;stroke-miterlimit:4;stroke-opacity:1;stroke-dasharray:none" />
    <path
       style="fill:none;stroke:#009600;stroke-width:1.80407894;stroke-linecap:butt;stroke-linejoin:miter;stroke-miterlimit:4;stroke-opacity:1;stroke-dasharray:none"
       d="M 297.79409,290.82128 323.87955,235.6401"
       id="path4642"
       inkscape:connector-curvature="0"
       sodipodi:nodetypes="cc" />
    <path
       sodipodi:nodetypes="cc"
       inkscape:connector-curvature="0"
       id="path4644"
       d="m 244.13256,304.23666 53.66153,-14.18973"
       style="fill:none;stroke:#009600;stroke-width:1.80407894;stroke-linecap:butt;stroke-linejoin:miter;stroke-miterlimit:4;stroke-opacity:1;stroke-dasharray:none" />
    <path
       sodipodi:nodetypes="cc"
       style="fill:none;stroke:#009600;stroke-width:2;stroke-linecap:butt;stroke-linejoin:miter;stroke-miterlimit:4;stroke-opacity:1;stroke-dasharray:4, 2;stroke-dashoffset:0"
       d="m 474.24363,213.31018 24.96752,30.90087"
       id="path4600"
       inkscape:connector-curvature="0" />
    <path
       inkscape:connector-curvature="0"
       id="path4598"
       d="m 245.43683,304.60931 36.14701,23.44787"
       style="fill:none;stroke:#009600;stroke-width:2;stroke-linecap:butt;stroke-linejoin:miter;stroke-miterlimit:4;stroke-opacity:1;stroke-dasharray:4, 2;stroke-dashoffset:0"
       sodipodi:nodetypes="cc" />
    <path
       style="fill:none;stroke:#009600;stroke-width:1.80407894;stroke-linecap:butt;stroke-linejoin:miter;stroke-miterlimit:4;stroke-opacity:1;stroke-dasharray:none"
       d="m 253.07614,207.34779 23.47692,40.21709"
       id="path4560"
       inkscape:connector-curvature="0"
       sodipodi:nodetypes="cc" />
    <path
       sodipodi:nodetypes="cccccc"
       inkscape:connector-curvature="0"
       id="path4363"
       d="m 320.02557,164.08837 c 0,0 -51.3716,-13.07443 -65.01613,-6.38947 -26.77135,14.12411 -19.97228,30.93851 1.27482,41.69972 7.96379,4.407 61.19166,17.31884 71.39027,14.79668 10.29654,-3.14899 24.74092,-3.99465 29.32101,-21.85872 2.54965,-14.79669 -8.07389,-20.17729 -36.96997,-28.24821 z"
       style="fill:#000000;fill-opacity:1;stroke:#000000;stroke-width:1.0144254px;stroke-linecap:butt;stroke-linejoin:miter;stroke-opacity:1" />
    <path
       style="fill:#000000;fill-opacity:1;stroke:#000000;stroke-width:0.61425525px;stroke-linecap:butt;stroke-linejoin:miter;stroke-opacity:1"
       d="m 340.10382,283.89296 c 0,0 -26.40484,17.36337 -29.63924,26.73607 -5.97113,18.86218 3.13516,23.63406 16.04778,18.96194 4.97884,-1.57613 32.10154,-19.86455 35.43966,-25.71037 3.146,-6.1844 8.88812,-13.18595 4.16281,-23.65334 -4.4356,-8.1012 -10.89191,-5.76514 -26.01101,3.6657 z"
       id="path4365"
       inkscape:connector-curvature="0"
       sodipodi:nodetypes="cccccc" />
    <text
       sodipodi:linespacing="125%"
       id="text4871"
       y="249.9857"
       x="210.93398"
       style="font-size:16.38691139000000163px;font-style:normal;font-variant:normal;font-weight:normal;font-stretch:normal;text-align:start;line-height:125%;writing-mode:lr-tb;text-anchor:start;fill:#000000;fill-opacity:1;stroke:none;font-family:Arial;-inkscape-font-specification:Arial"
       xml:space="preserve"><tspan
         y="249.9857"
         x="210.93398"
         id="tspan4873"
         sodipodi:role="line">θ</tspan></text>
    <text
       xml:space="preserve"
       style="font-size:10.92460823000000048px;font-style:normal;font-variant:normal;font-weight:normal;font-stretch:normal;text-align:start;line-height:125%;writing-mode:lr-tb;text-anchor:start;fill:#000000;fill-opacity:1;stroke:none;font-family:Arial;-inkscape-font-specification:Arial"
       x="219.67586"
       y="253.58575"
       id="text4875"
       sodipodi:linespacing="125%"><tspan
         sodipodi:role="line"
         id="tspan4877"
         x="219.67586"
         y="253.58575">2</tspan></text>
    <text
       xml:space="preserve"
       style="font-size:17.97257614000000103px;font-style:normal;font-variant:normal;font-weight:normal;font-stretch:normal;text-align:start;line-height:125%;writing-mode:lr-tb;text-anchor:start;fill:#000000;fill-opacity:1;stroke:none;font-family:Arial;-inkscape-font-specification:Arial"
       x="369.49326"
       y="359.75385"
       id="text4879"
       sodipodi:linespacing="125%"><tspan
         sodipodi:role="line"
         id="tspan4881"
         x="369.49326"
         y="359.75385">θ</tspan></text>
    <text
       sodipodi:linespacing="125%"
       id="text4883"
       y="363.2001"
       x="378.61755"
       style="font-size:11.98171806000000039px;font-style:normal;font-variant:normal;font-weight:normal;font-stretch:normal;text-align:start;line-height:125%;writing-mode:lr-tb;text-anchor:start;fill:#000000;fill-opacity:1;stroke:none;font-family:Arial;-inkscape-font-specification:Arial"
       xml:space="preserve"><tspan
         y="363.2001"
         x="378.61755"
         id="tspan4885"
         sodipodi:role="line">1</tspan></text>
    <rect
       style="fill:none;stroke:#000000;stroke-width:2;stroke-miterlimit:4;stroke-opacity:1;stroke-dasharray:none"
       id="rect3188"
       width="294.06937"
       height="191.83017"
       x="28.985329"
       y="3.1148245"
       transform="translate(200.67101,146.79076)" />
    <path
       sodipodi:nodetypes="cccccc"
       inkscape:connector-curvature="0"
       id="path3982"
       d="m 470.15788,252.05377 c 0,0 -15.99764,-67.6132 -25.77257,-80.92304 -19.72728,-25.65346 -25.81591,-9.80169 -22.11185,20.61293 1.18516,11.57085 18.10632,81.33656 24.06644,92.41743 6.34515,10.91153 13.30324,27.85321 25.08203,25.17257 9.19663,-3.7128 7.3446,-18.92011 -1.26405,-57.27989 z"
       style="fill:#000000;fill-opacity:1;stroke:#000000;stroke-width:0.93993312px;stroke-linecap:butt;stroke-linejoin:miter;stroke-opacity:1" />
    <path
       sodipodi:type="star"
       style="fill:#c8c800;fill-opacity:1;stroke:none"
       id="path4000"
       sodipodi:sides="5"
       sodipodi:cx="274.5701"
       sodipodi:cy="27.3571"
       sodipodi:r1="9.0669537"
       sodipodi:r2="4.5334768"
       sodipodi:arg1="0.95054684"
       sodipodi:arg2="1.5788654"
       inkscape:flatsided="false"
       inkscape:rounded="0"
       inkscape:randomized="0"
       d="m 279.84016,34.735183 -5.30664,-2.844754 -5.35186,2.758748 1.06568,-5.925992 -4.27754,-4.237417 5.96527,-0.81771 2.70819,-5.377617 2.62106,5.42062 5.95129,0.913867 -4.34536,4.167837 z"
       transform="translate(198.78129,186.39524)"
       inkscape:transform-center-x="-0.022607949"
       inkscape:transform-center-y="-0.8442874" />
    <path
       sodipodi:type="arc"
       style="fill:#00c800;fill-opacity:1;stroke:none"
       id="path3990"
       sodipodi:cx="55.072124"
       sodipodi:cy="125.38021"
       sodipodi:rx="6.0605688"
       sodipodi:ry="6.3240719"
       d="m 61.132693,125.38021 c 0,3.49269 -2.713409,6.32407 -6.060569,6.32407 -3.347159,0 -6.060568,-2.83138 -6.060568,-6.32407 0,-3.49269 2.713409,-6.32407 6.060568,-6.32407 3.34716,0 6.060569,2.83138 6.060569,6.32407 z"
       transform="matrix(0.82500507,0,0,0.79062985,199.25675,204.86236)" />
    <path
       transform="matrix(0.82500507,0,0,0.79062985,252.91828,191.3829)"
       d="m 61.132693,125.38021 c 0,3.49269 -2.713409,6.32407 -6.060569,6.32407 -3.347159,0 -6.060568,-2.83138 -6.060568,-6.32407 0,-3.49269 2.713409,-6.32407 6.060568,-6.32407 3.34716,0 6.060569,2.83138 6.060569,6.32407 z"
       sodipodi:ry="6.3240719"
       sodipodi:rx="6.0605688"
       sodipodi:cy="125.38021"
       sodipodi:cx="55.072124"
       id="path4004"
       style="fill:#00c800;fill-opacity:1;stroke:none"
       sodipodi:type="arc" />
    <path
       sodipodi:type="arc"
       style="fill:#00c800;fill-opacity:1;stroke:none"
       id="path4006"
       sodipodi:cx="55.072124"
       sodipodi:cy="125.38021"
       sodipodi:rx="6.0605688"
       sodipodi:ry="6.3240719"
       d="m 61.132693,125.38021 c 0,3.49269 -2.713409,6.32407 -6.060569,6.32407 -3.347159,0 -6.060568,-2.83138 -6.060568,-6.32407 0,-3.49269 2.713409,-6.32407 6.060568,-6.32407 3.34716,0 6.060569,2.83138 6.060569,6.32407 z"
       transform="matrix(0.82500507,0,0,0.79062985,231.30461,148.46416)" />
    <path
       transform="matrix(0.82500507,0,0,0.79062985,208.20034,108.15393)"
       d="m 61.132693,125.38021 c 0,3.49269 -2.713409,6.32407 -6.060569,6.32407 -3.347159,0 -6.060568,-2.83138 -6.060568,-6.32407 0,-3.49269 2.713409,-6.32407 6.060568,-6.32407 3.34716,0 6.060569,2.83138 6.060569,6.32407 z"
       sodipodi:ry="6.3240719"
       sodipodi:rx="6.0605688"
       sodipodi:cy="125.38021"
       sodipodi:cx="55.072124"
       id="path4008"
       style="fill:#00c800;fill-opacity:1;stroke:none"
       sodipodi:type="arc" />
    <path
       sodipodi:type="arc"
       style="fill:#ff0000;fill-opacity:1;stroke:none"
       id="path4010"
       sodipodi:cx="55.072124"
       sodipodi:cy="125.38021"
       sodipodi:rx="6.0605688"
       sodipodi:ry="6.3240719"
       d="m 61.132693,125.38021 c 0,3.49269 -2.713409,6.32407 -6.060569,6.32407 -3.347159,0 -6.060568,-2.83138 -6.060568,-6.32407 0,-3.49269 2.713409,-6.32407 6.060568,-6.32407 3.34716,0 6.060569,2.83138 6.060569,6.32407 z"
       transform="matrix(0.82500507,0,0,0.79062985,221.24307,77.905276)" />
    <path
       transform="matrix(0.82500507,0,0,0.79062985,282.02573,219.76834)"
       d="m 61.132693,125.38021 c 0,3.49269 -2.713409,6.32407 -6.060569,6.32407 -3.347159,0 -6.060568,-2.83138 -6.060568,-6.32407 0,-3.49269 2.713409,-6.32407 6.060568,-6.32407 3.34716,0 6.060569,2.83138 6.060569,6.32407 z"
       sodipodi:ry="6.3240719"
       sodipodi:rx="6.0605688"
       sodipodi:cy="125.38021"
       sodipodi:cx="55.072124"
       id="path4021"
       style="fill:#ff0000;fill-opacity:1;stroke:none"
       sodipodi:type="arc" />
    <path
       transform="matrix(0.82500507,0,0,0.79062985,321.89923,145.11031)"
       d="m 61.132693,125.38021 c 0,3.49269 -2.713409,6.32407 -6.060569,6.32407 -3.347159,0 -6.060568,-2.83138 -6.060568,-6.32407 0,-3.49269 2.713409,-6.32407 6.060568,-6.32407 3.34716,0 6.060569,2.83138 6.060569,6.32407 z"
       sodipodi:ry="6.3240719"
       sodipodi:rx="6.0605688"
       sodipodi:cy="125.38021"
       sodipodi:cx="55.072124"
       id="path4025"
       style="fill:#00c800;fill-opacity:1;stroke:none"
       sodipodi:type="arc" />
    <path
       transform="matrix(0.82500507,0,0,0.79062985,283.88898,86.103565)"
       d="m 61.132693,125.38021 c 0,3.49269 -2.713409,6.32407 -6.060569,6.32407 -3.347159,0 -6.060568,-2.83138 -6.060568,-6.32407 0,-3.49269 2.713409,-6.32407 6.060568,-6.32407 3.34716,0 6.060569,2.83138 6.060569,6.32407 z"
       sodipodi:ry="6.3240719"
       sodipodi:rx="6.0605688"
       sodipodi:cy="125.38021"
       sodipodi:cx="55.072124"
       id="path4029"
       style="fill:#ff0000;fill-opacity:1;stroke:none"
       sodipodi:type="arc" />
    <path
       sodipodi:type="arc"
       style="fill:#00c800;fill-opacity:1;stroke:none"
       id="path4033"
       sodipodi:cx="55.072124"
       sodipodi:cy="125.38021"
       sodipodi:rx="6.0605688"
       sodipodi:ry="6.3240719"
       d="m 61.132693,125.38021 c 0,3.49269 -2.713409,6.32407 -6.060569,6.32407 -3.347159,0 -6.060568,-2.83138 -6.060568,-6.32407 0,-3.49269 2.713409,-6.32407 6.060568,-6.32407 3.34716,0 6.060569,2.83138 6.060569,6.32407 z"
       transform="matrix(0.82500507,0,0,0.79062985,331.25623,219.02304)" />
    <path
       transform="matrix(0.82500507,0,0,0.79062985,347.28016,95.483847)"
       d="m 61.132693,125.38021 c 0,3.49269 -2.713409,6.32407 -6.060569,6.32407 -3.347159,0 -6.060568,-2.83138 -6.060568,-6.32407 0,-3.49269 2.713409,-6.32407 6.060568,-6.32407 3.34716,0 6.060569,2.83138 6.060569,6.32407 z"
       sodipodi:ry="6.3240719"
       sodipodi:rx="6.0605688"
       sodipodi:cy="125.38021"
       sodipodi:cx="55.072124"
       id="path4039"
       style="fill:#00c800;fill-opacity:1;stroke:none"
       sodipodi:type="arc" />
    <path
       sodipodi:type="arc"
       style="fill:#00c800;fill-opacity:1;stroke:none"
       id="path4041"
       sodipodi:cx="55.072124"
       sodipodi:cy="125.38021"
       sodipodi:rx="6.0605688"
       sodipodi:ry="6.3240719"
       d="m 61.132693,125.38021 c 0,3.49269 -2.713409,6.32407 -6.060569,6.32407 -3.347159,0 -6.060568,-2.83138 -6.060568,-6.32407 0,-3.49269 2.713409,-6.32407 6.060568,-6.32407 3.34716,0 6.060569,2.83138 6.060569,6.32407 z"
       transform="matrix(0.82500507,0,0,0.79062985,331.25623,71.197585)" />
    <path
       transform="matrix(0.82500507,0,0,0.79062985,392.78418,219.02304)"
       d="m 61.132693,125.38021 c 0,3.49269 -2.713409,6.32407 -6.060569,6.32407 -3.347159,0 -6.060568,-2.83138 -6.060568,-6.32407 0,-3.49269 2.713409,-6.32407 6.060568,-6.32407 3.34716,0 6.060569,2.83138 6.060569,6.32407 z"
       sodipodi:ry="6.3240719"
       sodipodi:rx="6.0605688"
       sodipodi:cy="125.38021"
       sodipodi:cx="55.072124"
       id="path4045"
       style="fill:#00c800;fill-opacity:1;stroke:none"
       sodipodi:type="arc" />
    <path
       sodipodi:type="arc"
       style="fill:#00c800;fill-opacity:1;stroke:none"
       id="path4047"
       sodipodi:cx="55.072124"
       sodipodi:cy="125.38021"
       sodipodi:rx="6.0605688"
       sodipodi:ry="6.3240719"
       d="m 61.132693,125.38021 c 0,3.49269 -2.713409,6.32407 -6.060569,6.32407 -3.347159,0 -6.060568,-2.83138 -6.060568,-6.32407 0,-3.49269 2.713409,-6.32407 6.060568,-6.32407 3.34716,0 6.060569,2.83138 6.060569,6.32407 z"
       transform="matrix(0.82500507,0,0,0.79062985,369.30726,179.45812)" />
    <path
       transform="matrix(0.82500507,0,0,0.79062985,419.61494,181.25731)"
       d="m 61.132693,125.38021 c 0,3.49269 -2.713409,6.32407 -6.060569,6.32407 -3.347159,0 -6.060568,-2.83138 -6.060568,-6.32407 0,-3.49269 2.713409,-6.32407 6.060568,-6.32407 3.34716,0 6.060569,2.83138 6.060569,6.32407 z"
       sodipodi:ry="6.3240719"
       sodipodi:rx="6.0605688"
       sodipodi:cy="125.38021"
       sodipodi:cx="55.072124"
       id="path4049"
       style="fill:#ff0000;fill-opacity:1;stroke:none"
       sodipodi:type="arc" />
    <path
       sodipodi:type="arc"
       style="fill:#ff0000;fill-opacity:1;stroke:none"
       id="path4051"
       sodipodi:cx="55.072124"
       sodipodi:cy="125.38021"
       sodipodi:rx="6.0605688"
       sodipodi:ry="6.3240719"
       d="m 61.132693,125.38021 c 0,3.49269 -2.713409,6.32407 -6.060569,6.32407 -3.347159,0 -6.060568,-2.83138 -6.060568,-6.32407 0,-3.49269 2.713409,-6.32407 6.060568,-6.32407 3.34716,0 6.060569,2.83138 6.060569,6.32407 z"
       transform="matrix(0.82500507,0,0,0.79062985,299.99446,189.39152)" />
    <path
       transform="matrix(0.82500507,0,0,0.79062985,385.33119,80.513822)"
       d="m 61.132693,125.38021 c 0,3.49269 -2.713409,6.32407 -6.060569,6.32407 -3.347159,0 -6.060568,-2.83138 -6.060568,-6.32407 0,-3.49269 2.713409,-6.32407 6.060568,-6.32407 3.34716,0 6.060569,2.83138 6.060569,6.32407 z"
       sodipodi:ry="6.3240719"
       sodipodi:rx="6.0605688"
       sodipodi:cy="125.38021"
       sodipodi:cx="55.072124"
       id="path4053"
       style="fill:#ff0000;fill-opacity:1;stroke:none"
       sodipodi:type="arc" />
    <path
       sodipodi:type="arc"
       style="fill:#00c800;fill-opacity:1;stroke:none"
       id="path4057"
       sodipodi:cx="55.072124"
       sodipodi:cy="125.38021"
       sodipodi:rx="6.0605688"
       sodipodi:ry="6.3240719"
       d="m 61.132693,125.38021 c 0,3.49269 -2.713409,6.32407 -6.060569,6.32407 -3.347159,0 -6.060568,-2.83138 -6.060568,-6.32407 0,-3.49269 2.713409,-6.32407 6.060568,-6.32407 3.34716,0 6.060569,2.83138 6.060569,6.32407 z"
       transform="matrix(0.82500507,0,0,0.79062985,441.2694,223.49483)" />
    <path
       transform="matrix(0.82500507,0,0,0.79062985,454.31213,182.06667)"
       d="m 61.132693,125.38021 c 0,3.49269 -2.713409,6.32407 -6.060569,6.32407 -3.347159,0 -6.060568,-2.83138 -6.060568,-6.32407 0,-3.49269 2.713409,-6.32407 6.060568,-6.32407 3.34716,0 6.060569,2.83138 6.060569,6.32407 z"
       sodipodi:ry="6.3240719"
       sodipodi:rx="6.0605688"
       sodipodi:cy="125.38021"
       sodipodi:cx="55.072124"
       id="path4059"
       style="fill:#00c800;fill-opacity:1;stroke:none"
       sodipodi:type="arc" />
    <path
       sodipodi:type="arc"
       style="fill:#00c800;fill-opacity:1;stroke:none"
       id="path4061"
       sodipodi:cx="55.072124"
       sodipodi:cy="125.38021"
       sodipodi:rx="6.0605688"
       sodipodi:ry="6.3240719"
       d="m 61.132693,125.38021 c 0,3.49269 -2.713409,6.32407 -6.060569,6.32407 -3.347159,0 -6.060568,-2.83138 -6.060568,-6.32407 0,-3.49269 2.713409,-6.32407 6.060568,-6.32407 3.34716,0 6.060569,2.83138 6.060569,6.32407 z"
       transform="matrix(0.82500507,0,0,0.79062985,454.31213,145.11031)" />
    <rect
       style="fill:#0000ff;fill-opacity:1;stroke:none"
       id="rect4301"
       width="13"
       height="13"
       x="275.38898"
       y="320.80417" />
    <path
       sodipodi:type="arc"
       style="fill:#00c800;fill-opacity:1;stroke:none"
       id="path4666"
       sodipodi:cx="55.072124"
       sodipodi:cy="125.38021"
       sodipodi:rx="6.0605688"
       sodipodi:ry="6.3240719"
       d="m 61.132693,125.38021 c 0,3.49269 -2.713409,6.32407 -6.060569,6.32407 -3.347159,0 -6.060568,-2.83138 -6.060568,-6.32407 0,-3.49269 2.713409,-6.32407 6.060568,-6.32407 3.34716,0 6.060569,2.83138 6.060569,6.32407 z"
       transform="matrix(0.82500507,0,0,0.79062985,279.04454,137.28467)" />
    <path
       transform="matrix(0.82500507,0,0,0.79062985,445.28697,63.744596)"
       d="m 61.132693,125.38021 c 0,3.49269 -2.713409,6.32407 -6.060569,6.32407 -3.347159,0 -6.060568,-2.83138 -6.060568,-6.32407 0,-3.49269 2.713409,-6.32407 6.060568,-6.32407 3.34716,0 6.060569,2.83138 6.060569,6.32407 z"
       sodipodi:ry="6.3240719"
       sodipodi:rx="6.0605688"
       sodipodi:cy="125.38021"
       sodipodi:cx="55.072124"
       id="path4671"
       style="fill:#00c800;fill-opacity:1;stroke:none"
       sodipodi:type="arc" />
    <path
       sodipodi:type="arc"
       style="fill:#00c800;fill-opacity:1;stroke:none"
       id="path4673"
       sodipodi:cx="55.072124"
       sodipodi:cy="125.38021"
       sodipodi:rx="6.0605688"
       sodipodi:ry="6.3240719"
       d="m 61.132693,125.38021 c 0,3.49269 -2.713409,6.32407 -6.060569,6.32407 -3.347159,0 -6.060568,-2.83138 -6.060568,-6.32407 0,-3.49269 2.713409,-6.32407 6.060568,-6.32407 3.34716,0 6.060569,2.83138 6.060569,6.32407 z"
       transform="matrix(0.82500507,0,0,0.79062985,467.27329,79.023225)" />
    <text
       xml:space="preserve"
       style="font-size:16.38691139px;font-style:normal;font-variant:normal;font-weight:normal;font-stretch:normal;text-align:start;line-height:125%;writing-mode:lr-tb;text-anchor:start;fill:#000000;fill-opacity:1;stroke:none;font-family:Arial;-inkscape-font-specification:Arial"
       x="269.58627"
       y="310.92712"
       id="text3051"
       sodipodi:linespacing="125%"><tspan
         sodipodi:role="line"
         id="tspan3053"
         x="269.58627"
         y="310.92712">q</tspan></text>
    <text
       sodipodi:linespacing="125%"
       id="text3055"
       y="314.52719"
       x="278.32816"
       style="font-size:10.92460823px;font-style:normal;font-variant:normal;font-weight:normal;font-stretch:normal;text-align:start;line-height:125%;writing-mode:lr-tb;text-anchor:start;fill:#000000;fill-opacity:1;stroke:none;font-family:Arial;-inkscape-font-specification:Arial"
       xml:space="preserve"><tspan
         y="314.52719"
         x="278.32816"
         id="tspan3057"
         sodipodi:role="line">start</tspan></text>
    <text
       sodipodi:linespacing="125%"
       id="text3059"
       y="195.81618"
       x="464.72806"
       style="font-size:16.38691139px;font-style:normal;font-variant:normal;font-weight:normal;font-stretch:normal;text-align:start;line-height:125%;writing-mode:lr-tb;text-anchor:start;fill:#000000;fill-opacity:1;stroke:none;font-family:Arial;-inkscape-font-specification:Arial"
       xml:space="preserve"><tspan
         y="195.81618"
         x="464.72806"
         id="tspan3061"
         sodipodi:role="line">q</tspan></text>
    <text
       xml:space="preserve"
       style="font-size:10.92460823px;font-style:normal;font-variant:normal;font-weight:normal;font-stretch:normal;text-align:start;line-height:125%;writing-mode:lr-tb;text-anchor:start;fill:#000000;fill-opacity:1;stroke:none;font-family:Arial;-inkscape-font-specification:Arial"
       x="473.46994"
       y="199.41624"
       id="text3063"
       sodipodi:linespacing="125%"><tspan
         sodipodi:role="line"
         id="tspan3065"
         x="473.46994"
         y="199.41624">goal</tspan></text>
  </g>
</svg>
